<svg width="25" height="24" viewBox="0 0 25 24" fill="none" xmlns="http://www.w3.org/2000/svg">
<path fill-rule="evenodd" clip-rule="evenodd" d="M8.5 6C8.5 3.79086 10.2909 2 12.5 2C14.7091 2 16.5 3.79086 16.5 6V11C16.5 13.2091 14.7091 15 12.5 15C10.2909 15 8.5 13.2091 8.5 11V6ZM12.5 4C11.3954 4 10.5 4.89543 10.5 6V11C10.5 12.1046 11.3954 13 12.5 13C13.6046 13 14.5 12.1046 14.5 11V6C14.5 4.89543 13.6046 4 12.5 4Z" fill="#222222"/>
<path d="M19.5 10C20.0523 10 20.5 10.4477 20.5 11C20.5 13.1217 19.6571 15.1566 18.1569 16.6569C16.8938 17.9199 15.2518 18.717 13.4981 18.9375C13.4993 18.9582 13.5 18.979 13.5 19V21C13.5 21.5523 13.0523 22 12.5 22C11.9477 22 11.5 21.5523 11.5 21V19C11.5 18.979 11.5006 18.9582 11.5019 18.9375C9.7482 18.717 8.10624 17.9199 6.84315 16.6569C5.34286 15.1566 4.5 13.1217 4.5 11C4.5 10.4477 4.94772 10 5.5 10C6.05228 10 6.5 10.4477 6.5 11C6.5 12.5913 7.13214 14.1174 8.25736 15.2426C9.38258 16.3679 10.9087 17 12.5 17C14.0913 17 15.6174 16.3679 16.7426 15.2426C17.8679 14.1174 18.5 12.5913 18.5 11C18.5 10.4477 18.9477 10 19.5 10Z" fill="#222222"/>
</svg>
