<svg width="48" height="48" viewBox="0 0 48 48" fill="none" xmlns="http://www.w3.org/2000/svg">
<path fill-rule="evenodd" clip-rule="evenodd" d="M27.9678 5.08326C28.1424 5.42188 28.1858 5.85554 28.2725 6.72287C28.4367 8.36444 28.5188 9.18523 28.8623 9.63557C29.2981 10.207 30.007 10.5006 30.7193 10.4048C31.2806 10.3292 31.919 9.80689 33.1958 8.76225C33.8703 8.21035 34.2076 7.93441 34.5705 7.81846C35.0315 7.67114 35.5304 7.69602 35.9745 7.88848C36.324 8.03997 36.6322 8.3481 37.2484 8.96438L39.0355 10.7514C39.6518 11.3678 39.96 11.6759 40.1115 12.0255C40.3039 12.4696 40.3288 12.9684 40.1815 13.4294C40.0656 13.7923 39.7896 14.1296 39.2376 14.8042C38.1929 16.0811 37.6705 16.7196 37.595 17.281C37.4992 17.9932 37.7928 18.702 38.3641 19.1378C38.8145 19.4814 39.6353 19.5635 41.2771 19.7276C42.1445 19.8144 42.5782 19.8578 42.9168 20.0324C43.3469 20.2543 43.682 20.6245 43.8599 21.0745C44 21.4289 44 21.8647 44 22.7364V25.2636C44 26.1352 44 26.5709 43.8599 26.9252C43.682 27.3753 43.3469 27.7457 42.9167 27.9675C42.5781 28.1421 42.1444 28.1855 41.2771 28.2722C39.6357 28.4364 38.8151 28.5184 38.3648 28.8618C37.7932 29.2977 37.4995 30.0068 37.5954 30.7192C37.671 31.2804 38.1933 31.9186 39.2377 33.1952C39.7895 33.8696 40.0654 34.2068 40.1813 34.5696C40.3287 35.0307 40.3038 35.5297 40.1113 35.9739C39.9598 36.3233 39.6517 36.6314 39.0356 37.2476L37.2483 39.0349C36.6321 39.6511 36.324 39.9592 35.9744 40.1107C35.5303 40.3032 35.0314 40.3281 34.5703 40.1807C34.2075 40.0648 33.8702 39.7888 33.1957 39.237C31.919 38.1924 31.2807 37.6701 30.7194 37.5946C30.0071 37.4987 29.2981 37.7923 28.8623 38.3638C28.5188 38.8141 28.4367 39.635 28.2726 41.2767C28.1858 42.1444 28.1424 42.5782 27.9677 42.9169C27.7459 43.3469 27.3757 43.6819 26.9258 43.8599C26.5714 44 26.1355 44 25.2636 44H22.7368C21.865 44 21.4292 44 21.0748 43.8599C20.6248 43.6819 20.2546 43.3469 20.0327 42.9168C19.8581 42.5782 19.8147 42.1445 19.7279 41.277C19.5638 39.6351 19.4817 38.8142 19.138 38.3638C18.7022 37.7926 17.9935 37.499 17.2814 37.5948C16.72 37.6702 16.0814 38.1927 14.8043 39.2376C14.1295 39.7897 13.792 40.0658 13.429 40.1818C12.9681 40.329 12.4695 40.3041 12.0255 40.1118C11.6758 39.9603 11.3675 39.652 10.7511 39.0356L8.96432 37.2488C8.34792 36.6324 8.0397 36.3242 7.88821 35.9745C7.69583 35.5305 7.67096 35.0318 7.8182 34.5708C7.93415 34.2079 8.21017 33.8705 8.7622 33.1958C9.80704 31.9188 10.3295 31.2802 10.405 30.7188C10.5008 30.0067 10.2072 29.2979 9.6359 28.8621C9.18552 28.5185 8.36464 28.4364 6.72288 28.2722C5.85553 28.1855 5.42185 28.1421 5.08321 27.9675C4.65311 27.7456 4.31804 27.3754 4.1401 26.9253C4 26.571 4 26.1352 4 25.2635V22.7365C4 21.8647 4 21.4288 4.14014 21.0744C4.31807 20.6245 4.6531 20.2543 5.08311 20.0325C5.4218 19.8578 5.85554 19.8144 6.72302 19.7276C8.36503 19.5634 9.18603 19.4813 9.63646 19.1377C10.2076 18.7019 10.5012 17.9932 10.4054 17.2812C10.33 16.7197 9.80741 16.081 8.76233 14.8037C8.2101 14.1287 7.93398 13.7912 7.81803 13.4281C7.67089 12.9673 7.69575 12.4688 7.88802 12.0249C8.03952 11.6751 8.34782 11.3668 8.9644 10.7502L10.7509 8.96369C11.3674 8.34717 11.6757 8.03891 12.0254 7.88741C12.4694 7.6951 12.968 7.67023 13.4289 7.81741C13.7919 7.93336 14.1294 8.20947 14.8043 8.76169C16.0814 9.80655 16.7199 10.329 17.2812 10.4045C17.9935 10.5004 18.7024 10.2068 19.1382 9.63534C19.4817 9.185 19.5638 8.36424 19.728 6.72274C19.8147 5.85553 19.8581 5.42191 20.0327 5.08332C20.2545 4.65313 20.6248 4.318 21.075 4.14006C21.4292 4 21.865 4 22.7366 4H25.2638C26.1355 4 26.5713 4 26.9256 4.14008C27.3757 4.31802 27.746 4.65312 27.9678 5.08326ZM24.0001 32C28.4183 32 32.0001 28.4183 32.0001 24C32.0001 19.5817 28.4183 16 24.0001 16C19.5818 16 16.0001 19.5817 16.0001 24C16.0001 28.4183 19.5818 32 24.0001 32Z" stroke="#999999" stroke-width="4"/>
</svg>
