<svg width="24" height="24" viewBox="0 0 24 24" fill="none" xmlns="http://www.w3.org/2000/svg">
<path d="M3.29302 3.29304C3.68354 2.90252 4.31655 2.90252 4.70708 3.29304L12 10.586L19.293 3.29304L19.3682 3.22371C19.761 2.90327 20.3409 2.92689 20.7071 3.29304C21.0732 3.65921 21.0959 4.23916 20.7754 4.63191L20.7071 4.7071L13.4141 12.0001L20.7071 19.293L20.7754 19.3682C21.0959 19.761 21.0732 20.3409 20.7071 20.7071C20.3409 21.0733 19.761 21.0959 19.3682 20.7755L19.293 20.7071L12 13.4141L4.70708 20.7071C4.31658 21.0976 3.68355 21.0976 3.29302 20.7071C2.90249 20.3166 2.90249 19.6836 3.29302 19.293L10.586 12.0001L3.29302 4.7071C2.90249 4.31658 2.90249 3.68357 3.29302 3.29304Z" fill="#999999"/>
</svg>
