<svg width="40" height="40" viewBox="0 0 40 40" fill="none" xmlns="http://www.w3.org/2000/svg">
<path fill-rule="evenodd" clip-rule="evenodd" d="M1.66675 13.3333C1.66675 11.4924 3.15913 10 5.00008 10H25.0001C26.841 10 28.3334 11.4924 28.3334 13.3333V13.8462L34.3016 11.0916C35.406 10.5819 36.6667 11.3885 36.6667 12.6048V27.3951C36.6667 28.6115 35.406 29.4181 34.3017 28.9084L28.3334 26.1538V26.6667C28.3334 28.5076 26.841 30 25.0001 30H5.00008C3.15913 30 1.66675 28.5076 1.66675 26.6667V13.3333ZM5.00008 13.3333H25.0001V26.6667H5.00008V13.3333ZM28.3334 22.4826L33.3334 24.7903V15.2097L28.3334 17.5174V22.4826Z" fill="#4D4D4D"/>
</svg>
