<svg width="24" height="24" viewBox="0 0 24 24" fill="none" xmlns="http://www.w3.org/2000/svg">
<path fill-rule="evenodd" clip-rule="evenodd" d="M9.86562 6.47468L16.2836 9.28254C17.1206 9.64866 17.8483 9.96696 18.3585 10.2831C18.8587 10.593 19.5051 11.1145 19.5051 12C19.5051 12.8855 18.8587 13.407 18.3585 13.7169C17.8483 14.033 17.1206 14.3513 16.2836 14.7174L9.86561 17.5253C8.78314 17.999 7.87697 18.3954 7.1815 18.5967C6.82407 18.7002 6.43522 18.7796 6.05529 18.7561C5.64049 18.7305 5.21097 18.5782 4.87969 18.2095C4.54841 17.8409 4.44279 17.3976 4.46148 16.9824C4.47859 16.6021 4.59897 16.224 4.73992 15.8796C5.01417 15.2095 5.50493 14.3508 6.09119 13.3249L6.56477 12.4961C6.71276 12.2372 6.78742 12.1043 6.83203 12.0048L6.83418 12L6.83203 11.9952C6.78742 11.8957 6.71276 11.7628 6.56477 11.5039L6.1299 10.7428C6.11695 10.7202 6.10405 10.6976 6.09119 10.6751C5.50494 9.64925 5.01417 8.79047 4.73992 8.1204C4.59897 7.77603 4.47859 7.39785 4.46148 7.01758C4.44279 6.60241 4.54841 6.15911 4.87969 5.79044C5.21097 5.42177 5.64049 5.26953 6.05529 5.24388C6.43522 5.22039 6.82407 5.29979 7.1815 5.40325C7.87697 5.60455 8.78314 6.00104 9.86562 6.47468ZM6.56912 7.30853C6.57595 7.32596 6.5832 7.34405 6.59088 7.36283C6.80907 7.89591 7.23141 8.63935 7.86638 9.75055L8.30125 10.5116C8.30704 10.5217 8.31283 10.5318 8.31863 10.542C8.44197 10.7577 8.56729 10.9769 8.65689 11.1767C8.75964 11.4058 8.84828 11.6771 8.84828 12C8.84828 12.3229 8.75964 12.5942 8.65689 12.8233C8.56729 13.0231 8.44197 13.2423 8.31863 13.458C8.31283 13.4682 8.30704 13.4783 8.30125 13.4884L7.86638 14.2494C7.23141 15.3606 6.80907 16.1041 6.59088 16.6372C6.5832 16.6559 6.57595 16.674 6.56912 16.6915C6.58718 16.6865 6.60594 16.6812 6.62543 16.6756C7.17872 16.5155 7.96292 16.1747 9.13544 15.6617L15.4111 12.9162C16.3398 12.5099 16.932 12.248 17.3051 12.0168C17.3144 12.0111 17.3233 12.0055 17.3319 12C17.3233 11.9945 17.3144 11.9889 17.3051 11.9832C16.932 11.752 16.3398 11.4901 15.4111 11.0838L9.13545 8.33826C7.96292 7.82528 7.17872 7.48454 6.62543 7.32439C6.60594 7.31875 6.58718 7.31347 6.56912 7.30853ZM17.5542 12.1709C17.5542 12.1709 17.5511 12.1679 17.5472 12.1621C17.5526 12.1679 17.5542 12.1709 17.5542 12.1709ZM17.5472 11.8379C17.5511 11.8321 17.5542 11.8291 17.5542 11.8291C17.5542 11.8291 17.5526 11.832 17.5472 11.8379Z" fill="#33363F"/>
</svg>
