<svg width="40" height="40" viewBox="0 0 40 40" fill="none" xmlns="http://www.w3.org/2000/svg">
<path d="M23 9.7C23 11.1912 21.8807 12.4 20.5 12.4C19.1193 12.4 18 11.1912 18 9.7C18 8.20883 19.1193 7 20.5 7C21.8807 7 23 8.20883 23 9.7Z" fill="#4D4D4D"/>
<path d="M23 20.5C23 21.9912 21.8807 23.2 20.5 23.2C19.1193 23.2 18 21.9912 18 20.5C18 19.0088 19.1193 17.8 20.5 17.8C21.8807 17.8 23 19.0088 23 20.5Z" fill="#4D4D4D"/>
<path d="M23 31.3C23 32.7912 21.8807 34 20.5 34C19.1193 34 18 32.7912 18 31.3C18 29.8088 19.1193 28.6 20.5 28.6C21.8807 28.6 23 29.8088 23 31.3Z" fill="#4D4D4D"/>
</svg>
