<svg width="48" height="48" viewBox="0 0 48 48" fill="none" xmlns="http://www.w3.org/2000/svg">
<path d="M12 26C12 24.8954 11.1046 24 10 24C8.89543 24 8 24.8954 8 26H12ZM41.7478 39.3979L39.8739 38.6989V38.6989L41.7478 39.3979ZM39.3979 41.7478L38.6989 39.8739H38.6989L39.3979 41.7478ZM26 8C24.8954 8 24 8.89543 24 10C24 11.1046 24.8954 12 26 12V8ZM20 22C18.8954 22 18 22.8954 18 24C18 25.1046 18.8954 26 20 26V22ZM32 26C33.1046 26 34 25.1046 34 24C34 22.8954 33.1046 22 32 22V26ZM10 18C10 19.1046 10.8954 20 12 20C13.1046 20 14 19.1046 14 18H10ZM14 6C14 4.89543 13.1046 4 12 4C10.8954 4 10 4.89543 10 6L14 6ZM6 10C4.89543 10 4 10.8954 4 12C4 13.1046 4.89543 14 6 14V10ZM18 14C19.1046 14 20 13.1046 20 12C20 10.8954 19.1046 10 18 10V14ZM26 30C24.8954 30 24 30.8954 24 32C24 33.1046 24.8954 34 26 34V30ZM32 34C33.1046 34 34 33.1046 34 32C34 30.8954 33.1046 30 32 30V34ZM40 26V36.1818H44V26H40ZM36.1818 40H26V44H36.1818V40ZM26 40C18.268 40 12 33.732 12 26H8C8 35.9411 16.0589 44 26 44V40ZM40 36.1818C40 37.0533 39.9991 37.6158 39.9723 38.0473C39.9465 38.463 39.9022 38.623 39.8739 38.6989L43.6217 40.0968C43.8456 39.4965 43.9274 38.8951 43.9646 38.2952C44.0009 37.711 44 37.0036 44 36.1818H40ZM36.1818 44C37.0036 44 37.711 44.0009 38.2952 43.9646C38.8951 43.9274 39.4965 43.8456 40.0968 43.6217L38.6989 39.8739C38.623 39.9022 38.463 39.9465 38.0473 39.9723C37.6158 39.9991 37.0533 40 36.1818 40V44ZM39.8739 38.6989C39.6712 39.2425 39.2425 39.6712 38.6989 39.8739L40.0968 43.6217C41.7274 43.0135 43.0135 41.7274 43.6217 40.0968L39.8739 38.6989ZM44 26C44 16.0589 35.9411 8 26 8V12C33.732 12 40 18.268 40 26H44ZM20 26H32V22H20V26ZM14 18V12H10V18H14ZM14 12L14 6L10 6L10 12H14ZM6 14H12V10H6V14ZM12 14H18V10H12V14ZM26 34H32V30H26V34Z" fill="#999999"/>
</svg>
