<svg width="40" height="40" viewBox="0 0 40 40" fill="none" xmlns="http://www.w3.org/2000/svg">
<path fill-rule="evenodd" clip-rule="evenodd" d="M9.41363 4.8961C10.658 3.65174 12.6755 3.65173 13.9199 4.8961L18.3334 9.30964C19.6352 10.6114 19.6352 12.7219 18.3334 14.0237L17.0342 15.3229C18.7773 18.5647 21.4354 21.2228 24.6772 22.9659L25.9764 21.6667C27.2781 20.3649 29.3887 20.3649 30.6904 21.6667L35.104 26.0802C36.3483 27.3246 36.3483 29.3421 35.104 30.5865C31.3088 34.3816 25.3005 34.8086 21.0067 31.5883L18.381 29.619C15.3488 27.3449 12.6552 24.6513 10.381 21.619L8.41177 18.9934C5.19145 14.6996 5.61845 8.69129 9.41363 4.8961ZM11.6678 7.35803C9.14107 9.98501 8.88286 14.0659 11.0784 16.9934L13.0477 19.619C15.1324 22.3986 17.6015 24.8677 20.381 26.9524L23.0067 28.9217C25.9342 31.1172 30.0151 30.859 32.6421 28.3323L28.3334 24.0237L26.6315 25.7256C25.8538 26.5033 24.6656 26.6962 23.6818 26.2043C19.4038 24.0652 15.9349 20.5963 13.7958 16.3182C13.3039 15.3345 13.4967 14.1463 14.2745 13.3686L15.9764 11.6667L11.6678 7.35803Z" fill="#4D4D4D"/>
</svg>
