<svg width="48" height="48" viewBox="0 0 48 48" fill="none" xmlns="http://www.w3.org/2000/svg">
<path fill-rule="evenodd" clip-rule="evenodd" d="M32.0001 12C32.0001 16.4183 28.4183 20 24.0001 20C19.5818 20 16.0001 16.4183 16.0001 12C16.0001 7.58172 19.5818 4 24.0001 4C28.4183 4 32.0001 7.58172 32.0001 12ZM28.0001 12C28.0001 14.2091 26.2092 16 24.0001 16C21.7909 16 20.0001 14.2091 20.0001 12C20.0001 9.79086 21.7909 8 24.0001 8C26.2092 8 28.0001 9.79086 28.0001 12Z" fill="#999999"/>
<path fill-rule="evenodd" clip-rule="evenodd" d="M16.6109 20C12.9765 20 9.84739 22.5653 9.13462 26.1291L7.47423 34.4311C6.48417 39.3814 10.2705 44 15.3189 44H32.6812C37.7296 44 41.5159 39.3814 40.5259 34.4311L38.8655 26.1291C38.1527 22.5653 35.0236 20 31.3892 20H31.1402C30.1877 20 29.2404 20.1404 28.3289 20.4166C25.5064 21.2719 22.4937 21.2719 19.6712 20.4166C18.7597 20.1404 17.8124 20 16.8599 20H16.6109ZM13.0569 26.9136C13.3958 25.2195 14.8833 24 16.6109 24H16.8599C17.4194 24 17.9758 24.0825 18.5112 24.2447C22.0901 25.3292 25.91 25.3292 29.4889 24.2447C30.0243 24.0825 30.5807 24 31.1402 24H31.3892C33.1168 24 34.6043 25.2195 34.9432 26.9136L36.6036 35.2155C37.0986 37.6907 35.2054 40 32.6812 40H15.3189C12.7947 40 10.9015 37.6907 11.3966 35.2155L13.0569 26.9136Z" fill="#999999"/>
</svg>
