<svg width="24" height="24" viewBox="0 0 24 24" fill="none" xmlns="http://www.w3.org/2000/svg">
<path fill-rule="evenodd" clip-rule="evenodd" d="M8 6C8 3.79086 9.79086 2 12 2C14.2091 2 16 3.79086 16 6V11C16 13.2091 14.2091 15 12 15C9.79086 15 8 13.2091 8 11V6ZM12 4C10.8954 4 10 4.89543 10 6V11C10 12.1046 10.8954 13 12 13C13.1046 13 14 12.1046 14 11V6C14 4.89543 13.1046 4 12 4Z" fill="#222222"/>
<path d="M19 10C19.5523 10 20 10.4477 20 11C20 13.1217 19.1571 15.1566 17.6569 16.6569C16.3938 17.9199 14.7518 18.717 12.9981 18.9375C12.9993 18.9582 13 18.979 13 19V21C13 21.5523 12.5523 22 12 22C11.4477 22 11 21.5523 11 21V19C11 18.979 11.0006 18.9582 11.0019 18.9375C9.2482 18.717 7.60624 17.9199 6.34315 16.6569C4.84286 15.1566 4 13.1217 4 11C4 10.4477 4.44772 10 5 10C5.55228 10 6 10.4477 6 11C6 12.5913 6.63214 14.1174 7.75736 15.2426C8.88258 16.3679 10.4087 17 12 17C13.5913 17 15.1174 16.3679 16.2426 15.2426C17.3679 14.1174 18 12.5913 18 11C18 10.4477 18.4477 10 19 10Z" fill="#222222"/>
</svg>
