<svg width="24" height="24" viewBox="0 0 24 24" fill="none" xmlns="http://www.w3.org/2000/svg">
<path d="M14.8515 3.78454C16.0147 3.50607 17.3261 3.70339 18.6162 4.71227L18.9277 4.97204C19.6326 5.59805 20.1728 6.37815 20.2285 7.37926C20.2819 8.34511 19.8687 9.2986 19.1621 10.2582L18.8417 10.6693C17.1498 12.737 12.8768 17.7025 10.9355 19.9457C10.6532 20.3319 10.1158 20.8508 9.39252 21.1507C8.56852 21.4924 7.50879 21.5413 6.44526 20.8324L6.36323 20.7777L6.29292 20.7074C5.58118 19.9956 5.30852 19.1459 5.53022 18.2582C5.72374 17.484 6.26331 16.823 6.79292 16.2933L7.23432 15.8216C8.56813 14.3508 11.8675 10.4862 13.748 8.34118C14.112 7.92593 14.7438 7.88444 15.1591 8.2484C15.5742 8.61252 15.6159 9.24434 15.2519 9.65954C13.4407 11.7255 10.0682 15.6756 8.67377 17.2103L8.20698 17.7074C7.7371 18.1773 7.52724 18.5168 7.47065 18.7425C7.44823 18.8324 7.45274 18.8952 7.47065 18.9525C7.48756 19.0061 7.53007 19.095 7.63764 19.2172C8.03555 19.452 8.35357 19.4164 8.6269 19.3031C8.97665 19.1579 9.24609 18.8777 9.331 18.7533L9.3642 18.7064L9.40131 18.6625C11.3378 16.4249 15.6168 11.4523 17.2939 9.4027L17.5615 9.05895C18.1211 8.29554 18.2484 7.80147 18.2314 7.49059C18.2161 7.21533 18.0742 6.88854 17.6054 6.47204L17.3837 6.28844C16.5646 5.6478 15.8766 5.59508 15.3173 5.72887C14.7092 5.87448 14.1479 6.26992 13.7206 6.69372L8.2646 12.767L8.19233 12.8392C7.8173 13.18 7.23762 13.188 6.85249 12.8422C6.44185 12.4731 6.40836 11.8408 6.77729 11.43L12.2558 5.33239L12.2744 5.31188L12.2929 5.29333C12.864 4.72223 13.7435 4.04986 14.8515 3.78454Z" fill="#222222"/>
</svg>
